<?xml version="1.0" encoding="UTF-8"?>
<svg version="1.1" xmlns="http://www.w3.org/2000/svg" width="512" height="512">
<path d="M0 0 C1.01790619 0.00215515 2.03581238 0.0043103 3.08456421 0.00653076 C17.69599291 0.05620948 32.02239484 0.31547407 46.375 3.3125 C47.33390137 3.50585938 48.29280273 3.69921875 49.28076172 3.8984375 C89.24571331 12.16572836 127.7375391 28.16996652 159.375 54.3125 C160.16197266 54.95735352 160.16197266 54.95735352 160.96484375 55.61523438 C208.01674157 94.26097778 239.01434745 144.85588762 252.375 204.3125 C252.71821289 205.80910156 252.71821289 205.80910156 253.06835938 207.3359375 C259.94059282 238.88477535 259.79728247 276.89273161 252.375 308.3125 C252.12830566 309.40771973 251.88161133 310.50293945 251.62744141 311.63134766 C242.9372721 349.67284386 226.48935161 384.63959851 202.375 415.3125 C201.63894531 416.26253906 200.90289062 417.21257812 200.14453125 418.19140625 C162.19859575 465.96199297 106.29331543 498.50370584 46.375 509.3125 C45.53662598 509.47331055 44.69825195 509.63412109 43.83447266 509.79980469 C15.60399256 515.01274314 -17.53074938 515.1604336 -45.625 509.3125 C-46.60130371 509.11382324 -47.57760742 508.91514648 -48.58349609 508.71044922 C-91.85126033 499.65819013 -132.05154748 481.27362518 -165.625 452.3125 C-166.37007813 451.67828125 -167.11515625 451.0440625 -167.8828125 450.390625 C-181.38779833 438.57948485 -194.05918743 425.82889772 -204.625 411.3125 C-205.48149066 410.16255169 -206.33826433 409.01281411 -207.1953125 407.86328125 C-213.23534209 399.67315742 -218.61867614 391.16870382 -223.625 382.3125 C-224.0271875 381.60528809 -224.429375 380.89807617 -224.84375 380.16943359 C-237.8691741 357.03404164 -246.61801461 331.86287591 -251.9375 305.875 C-252.08485596 305.15610596 -252.23221191 304.43721191 -252.3840332 303.6965332 C-255.35789088 288.05024391 -255.99800362 272.57681954 -255.9375 256.6875 C-255.93534485 255.66959381 -255.9331897 254.65168762 -255.93096924 253.60293579 C-255.88129854 238.99386477 -255.63040191 224.66174147 -252.625 210.3125 C-252.42632324 209.33764648 -252.22764648 208.36279297 -252.02294922 207.35839844 C-241.90232806 158.9765226 -219.9858123 114.98821731 -185.625 79.3125 C-184.99287598 78.65314453 -184.36075195 77.99378906 -183.70947266 77.31445312 C-174.56502521 67.82619695 -165.26765991 59.0862956 -154.625 51.3125 C-153.47394983 50.45443848 -152.32290823 49.59636549 -151.171875 48.73828125 C-142.98224019 42.70072604 -134.47961724 37.31792698 -125.625 32.3125 C-124.91778809 31.9103125 -124.21057617 31.508125 -123.48193359 31.09375 C-100.34654164 18.0683259 -75.17537591 9.31948539 -49.1875 4 C-48.46860596 3.85264404 -47.74971191 3.70528809 -47.0090332 3.5534668 C-31.36274391 0.57960912 -15.88931954 -0.06050362 0 0 Z M-19.46875 116.15234375 C-22.30876582 121.45818412 -22.89966425 126.24698065 -22.75 132.1875 C-22.74097656 132.87585938 -22.73195313 133.56421875 -22.72265625 134.2734375 C-22.69932513 135.95327838 -22.66346326 137.63293746 -22.625 139.3125 C-23.8625 139.539375 -25.1 139.76625 -26.375 140 C-47.38387059 144.76727111 -65.22798258 159.54418925 -76.6875 177.4375 C-89.34342358 198.68574307 -93.32440294 220.7993176 -92.10469818 245.09353828 C-91.84965772 250.73253045 -91.75199012 256.37719448 -91.62604904 262.02027988 C-91.50815044 266.9214437 -91.33688578 271.80880407 -91.04443359 276.70288086 C-89.07460285 310.80509838 -89.07460285 310.80509838 -98.5076561 322.12420368 C-103.0244453 327.04370826 -107.82063184 331.46059139 -113.06756592 335.58973694 C-114.09249523 336.41840743 -114.09249523 336.41840743 -115.13813019 337.26381874 C-117.14160156 338.84741211 -117.14160156 338.84741211 -119.10894012 340.17328453 C-121.29596837 341.72615689 -121.29596837 341.72615689 -123.625 345.3125 C-123.625 350.2625 -123.625 355.2125 -123.625 360.3125 C-41.785 360.3125 40.055 360.3125 124.375 360.3125 C125.84089398 346.56472576 125.84089398 346.56472576 121.6558075 341.55593872 C120.43077929 340.60870317 119.17274595 339.70301882 117.8894043 338.83642578 C116.52502556 337.75652749 115.16690019 336.6686919 113.81440735 335.57394409 C112.75491599 334.73933969 112.75491599 334.73933969 111.67402077 333.8878746 C101.96181329 326.00482814 93.57558554 317.88096983 91.85400391 305.06152344 C90.84710312 294.76542013 91.39513787 284.39162604 92.02636719 274.08843994 C92.34906359 268.27880451 92.45823031 262.46182583 92.59927654 256.64549446 C92.71283806 252.11706599 92.85395266 247.59690267 93.09785461 243.07345581 C94.46085909 215.69866157 87.88795871 187.77633221 69.5703125 166.7265625 C68.84585938 165.92992187 68.12140625 165.13328125 67.375 164.3125 C66.77429688 163.61898437 66.17359375 162.92546875 65.5546875 162.2109375 C54.9115657 150.64633329 39.00468206 141.42976287 23.375 139.3125 C23.40980469 138.3225 23.44460938 137.3325 23.48046875 136.3125 C23.71234515 127.01743449 23.70013527 119.01268525 17.0078125 111.69921875 C11.47763232 107.00253463 5.16797873 104.40112706 -2.109375 104.8359375 C-9.71113398 106.27602228 -15.04459671 109.88908023 -19.46875 116.15234375 Z M-30.625 377.3125 C-28.57259521 387.57452393 -26.05643159 395.54118945 -17.58984375 402.0625 C-9.98729761 406.89910987 -2.57331278 408.46063008 6.375 407.3125 C14.51232 405.32520653 20.96942553 400.97458413 25.91015625 394.2109375 C29.42084252 388.41779339 29.92318638 384.57156809 31.375 377.3125 C10.915 377.3125 -9.545 377.3125 -30.625 377.3125 Z " fill="#000000" transform="translate(255.625,-0.3125)"/>
</svg>
